<svg width="32" height="32" viewBox="0 0 32 32" fill="none" xmlns="http://www.w3.org/2000/svg">
  <rect width="32" height="32" rx="8" fill="url(#paint0_linear_1_2)"/>
  <path d="M16 6C10.4772 6 6 10.4772 6 16C6 21.5228 10.4772 26 16 26C19.8637 26 23.157 23.8324 24.8287 20.5H20C18.8482 21.8358 17.5045 22.5 16 22.5C12.4101 22.5 9.5 19.5899 9.5 16C9.5 12.4101 12.4101 9.5 16 9.5C18.3857 9.5 20.45 10.7135 21.5 12.5V9.5H24.5V16H18.5V12.5H21.3514C20.5264 11.0773 18.4528 10 16 10C12.6863 10 10 12.6863 10 16C10 19.3137 12.6863 22 16 22C18.242 22 20.15 20.8333 21 19H24.4323C23.2585 22.0442 19.8956 24.5 16 24.5C11.3056 24.5 7.5 20.6944 7.5 16C7.5 11.3056 11.3056 7.5 16 7.5C19.8743 7.5 23.157 9.7912 24.6328 13H23.3438C21.9699 10.4408 19.1497 8.5 16 8.5V6Z" fill="white"/>
  <defs>
    <linearGradient id="paint0_linear_1_2" x1="0" y1="16" x2="32" y2="16" gradientUnits="userSpaceOnUse">
      <stop stop-color="#6366F1"/>
      <stop offset="1" stop-color="#8B5CF6"/>
    </linearGradient>
  </defs>
</svg> 